<?xml version="1.0" standalone="no"?>
<!DOCTYPE svg PUBLIC "-//W3C//DTD SVG 20010904//EN"
 "http://www.w3.org/TR/2001/REC-SVG-20010904/DTD/svg10.dtd">
<svg version="1.0" xmlns="http://www.w3.org/2000/svg"
 width="500.000000pt" height="500.000000pt" viewBox="0 0 500.000000 500.000000"
 preserveAspectRatio="xMidYMid meet">

<g transform="translate(0.000000,500.000000) scale(0.100000,-0.100000)"
fill="#000000" stroke="none">
<path d="M1900 2593 c-127 -302 -121 -285 -99 -281 15 2 29 22 48 68 l28 65
60 3 60 3 29 -71 c21 -50 34 -70 47 -70 14 0 17 5 11 23 -12 39 -135 322 -143
330 -4 4 -23 -27 -41 -70z m43 -101 c-19 -2 -37 -2 -39 0 -1 2 5 25 14 52 l17
47 21 -48 21 -48 -34 -3z"/>
<path d="M2266 2595 c-19 -30 -20 -35 -3 -35 7 0 23 14 35 30 21 29 22 30 3
30 -10 0 -26 -11 -35 -25z"/>
<path d="M2223 2502 c-34 -5 -73 -58 -73 -99 0 -68 80 -115 141 -82 26 13 8
39 -21 32 -26 -7 -72 5 -65 17 3 4 34 18 70 30 l65 22 -14 27 c-23 44 -55 61
-103 53z m41 -38 c24 -9 19 -21 -11 -32 -16 -5 -36 -13 -45 -17 -27 -11 -23
20 4 39 25 18 30 19 52 10z"/>
<path d="M2623 2502 c-34 -5 -73 -58 -73 -99 0 -79 104 -123 165 -70 38 33 45
95 14 130 -25 29 -69 45 -106 39z m61 -53 c30 -23 33 -45 10 -77 -18 -26 -65
-30 -88 -6 -24 23 -20 70 6 88 29 21 40 20 72 -5z"/>
<path d="M2400 2405 c0 -88 2 -95 20 -95 16 0 19 8 22 62 3 58 5 64 35 83 32
20 44 45 21 45 -6 0 -22 -10 -35 -22 l-23 -21 0 21 c0 15 -6 22 -20 22 -19 0
-20 -7 -20 -95z"/>
</g>
</svg>
